<svg height="512pt" viewBox="0 -51 512.00016 512" width="512pt" xmlns="http://www.w3.org/2000/svg"><path d="m386.046875 217.261719-14.933594 40.019531c-3.066406 8.273438-8.242187 15.597656-15.015625 21.25l-22.785156-6.058594-58.113281-15.277344c-4.351563-11.519531-4.351563-24.234374 0-35.753906l14.933593-40.019531c.640626-1.734375 1.84375-3.207031 3.414063-4.183594 2.25-1.492187 5.089844-1.777343 7.59375-.765625l79.871094 29.867188c2.125.769531 3.847656 2.359375 4.792969 4.410156.945312 2.050781 1.035156 4.394531.242187 6.511719zm0 0" class="fill-3"/><path d="m362.410156 212.054688-14.933594 39.9375c-2.949218 7.894531-7.816406 14.933593-14.164062 20.480468l-58.113281-15.277344c-4.351563-11.519531-4.351563-24.234374 0-35.753906l14.933593-40.019531c.640626-1.734375 1.84375-3.207031 3.414063-4.183594l63.828125 23.808594c4.417969 1.664063 6.664062 6.578125 5.035156 11.007813zm0 0" class="fill-1"/><path d="m179.199219 307.203125-50.082031-9.984375-18.183594-109.097656h119.464844l-14.761719 88.402344zm0 0" class="fill-1"/><path d="m238.933594 162.5625v17.066406c-.015625 4.707032-3.828125 8.519532-8.535156 8.53125h-119.464844c-4.707032-.011718-8.519532-3.824218-8.535156-8.53125v-17.066406c-.007813-2.265625.890624-4.441406 2.492187-6.042969 1.601563-1.601562 3.777344-2.5 6.042969-2.492187h34.132812v8.449218c0 4.710938 3.820313 8.535157 8.535156 8.535157 4.710938 0 8.53125-3.824219 8.53125-8.535157v-8.449218h68.265626c2.265624-.007813 4.441406.890625 6.042968 2.492187 1.605469 1.601563 2.5 3.777344 2.492188 6.042969zm0 0" class="fill-1"/><path d="m162.132812 154.027344v8.449218c0 4.710938-3.820312 8.535157-8.53125 8.535157-4.714843 0-8.535156-3.824219-8.535156-8.535157v-8.449218zm0 0" class="fill-2"/><path d="m409.601562 316.160156-25.601562 16.640625h-273.066406l-17.066406-16.640625c23.367187-21.339844 53.691406-33.472656 85.332031-34.132812 41.898437 0 55.210937-17.152344 86.785156-23.292969 7.949219-1.597656 16.042969-2.371094 24.148437-2.304687 51.199219 0 119.46875 59.730468 119.46875 59.730468zm0 0" class="fill-3"/><path d="m366.933594 316.160156-25.601563 16.640625h-230.398437l-17.066406-16.640625c23.367187-21.339844 53.691406-33.472656 85.332031-34.132812 41.898437 0 55.210937-17.152344 86.785156-23.292969 47.699219 10.835937 100.949219 57.425781 100.949219 57.425781zm0 0" class="fill-1"/><path d="m503.46875 384.429688v8.53125c-.015625 4.707031-3.828125 8.519531-8.535156 8.535156h-477.867188c-4.707031-.015625-8.519531-3.828125-8.53125-8.535156-.035156-11.324219 4.449219-22.199219 12.457032-30.207032 8.007812-8.007812 18.882812-12.492187 30.207031-12.457031h10.242187l367.871094-17.066406h22.953125c28.269531.019531 51.179687 22.929687 51.203125 51.199219zm0 0" class="fill-3"/><path d="m479.828125 384.429688v8.53125c-.011719 4.707031-3.824219 8.519531-8.53125 8.535156h-454.230469c-4.707031-.015625-8.519531-3.828125-8.53125-8.535156-.035156-11.324219 4.449219-22.199219 12.457032-30.207032 8.007812-8.007812 18.882812-12.492187 30.207031-12.457031h10.242187l367.871094-17.066406c27.996094.40625 50.484375 23.199219 50.515625 51.199219zm0 0" class="fill-1"/><path d="m443.734375 401.496094h-392.535156l14.335937-71.679688c1.628906-7.945312 8.617188-13.648437 16.726563-13.65625h330.410156c8.109375.007813 15.097656 5.710938 16.726563 13.65625zm0 0" class="fill-3"/><path d="m420.097656 401.496094h-368.898437l14.335937-71.679688c1.628906-7.945312 8.617188-13.648437 16.726563-13.65625h306.773437c8.109375.007813 15.097656 5.710938 16.726563 13.65625zm0 0" class="fill-1"/><path d="m332.800781 350.253906c23.5625 0 42.667969 19.101563 42.667969 42.667969v8.53125h-85.335938v-8.53125c0-23.566406 19.101563-42.667969 42.667969-42.667969zm0 0" class="fill-3"/><path d="m153.601562 350.253906c11.316407 0 22.167969 4.496094 30.167969 12.496094 8.003907 8 12.496094 18.855469 12.496094 30.171875v8.53125h-85.332031v-8.53125c0-23.566406 19.101562-42.667969 42.667968-42.667969zm0 0" class="fill-3"/><path d="m17.066406 401.496094h25.601563c-4.707031-.015625-8.519531-3.828125-8.535157-8.535156-.035156-11.324219 4.449219-22.199219 12.460938-30.207032 8.007812-8.007812 18.878906-12.492187 30.207031-12.457031h10.238281l4.097657-20.480469c1.628906-7.945312 8.617187-13.648437 16.726562-13.65625h11.605469c10.238281-9.394531 21.925781-17.074218 34.613281-22.75l-17.542969-105.25h-.003906c-4.707031-.011718-8.519531-3.824218-8.535156-8.53125v-17.066406c-.007812-2.265625.890625-4.441406 2.492188-6.042969 1.601562-1.601562 3.777343-2.5 6.042968-2.492187h-25.601562c-2.265625-.007813-4.441406.890625-6.042969 2.492187-1.601563 1.601563-2.5 3.777344-2.492187 6.042969v17.066406c.015624 4.707032 3.828124 8.519532 8.535156 8.53125h.007812l17.539063 105.25c-12.683594 5.675782-24.375 13.355469-34.613281 22.75h-11.605469c-8.109375.007813-15.097657 5.710938-16.726563 13.65625l-4.09375 20.480469h-10.242187c-11.324219-.035156-22.199219 4.449219-30.207031 12.457031-8.007813 8.007813-12.492188 18.882813-12.457032 30.207032.011719 4.707031 3.824219 8.519531 8.53125 8.535156zm0 0" class="fill-4"/><g class="stroke-color"><path d="m443.734375 409.984375h-392.535156c-2.554688 0-4.976563-1.148437-6.59375-3.125-1.621094-1.976563-2.269531-4.578125-1.769531-7.082031l14.320312-71.609375c2.414062-11.953125 12.910156-20.558594 25.105469-20.582031h330.410156c12.195313.027343 22.6875 8.628906 25.105469 20.582031l14.320312 71.609375c.5 2.503906-.148437 5.105468-1.765625 7.082031-1.621093 1.976563-4.042969 3.125-6.597656 3.125zm-382.125-17.066406h371.714844l-12.277344-61.394531c-.804687-3.988282-4.304687-6.859376-8.371094-6.867188h-330.414062c-4.066407.007812-7.566407 2.878906-8.371094 6.867188zm0 0"/><path d="m494.933594 409.984375h-76.800782c-4.710937 0-8.53125-3.820313-8.53125-8.53125 0-4.714844 3.820313-8.535156 8.53125-8.535156h76.800782v-8.53125c-.027344-23.554688-19.113282-42.640625-42.667969-42.667969h-22.183594c-4.714843 0-8.535156-3.820312-8.535156-8.535156 0-4.710938 3.820313-8.53125 8.535156-8.53125h22.183594c32.976563.039062 59.695313 26.757812 59.734375 59.734375v8.53125c-.011719 9.421875-7.644531 17.054687-17.066406 17.066406zm0 0"/><path d="m375.46875 409.984375h-85.335938c-4.710937 0-8.53125-3.820313-8.53125-8.53125v-8.535156c0-28.277344 22.921876-51.199219 51.199219-51.199219 28.277344 0 51.199219 22.921875 51.199219 51.199219v8.535156c0 4.710937-3.820312 8.53125-8.53125 8.53125zm-76.800781-17.066406h68.265625c0-18.851563-15.28125-34.132813-34.132813-34.132813-18.851562 0-34.132812 15.28125-34.132812 34.132813zm0 0"/><path d="m196.265625 409.984375h-85.332031c-4.714844 0-8.535156-3.820313-8.535156-8.53125v-8.535156c0-28.277344 22.925781-51.199219 51.203124-51.199219 28.277344 0 51.199219 22.921875 51.199219 51.199219v8.535156c0 4.710937-3.820312 8.53125-8.535156 8.53125zm-76.796875-17.066406h68.265625c0-18.851563-15.28125-34.132813-34.132813-34.132813-18.851562 0-34.132812 15.28125-34.132812 34.132813zm0 0"/><path d="m85.332031 409.984375h-68.265625c-9.421875-.011719-17.0546872-7.644531-17.066406-17.066406-.0351562-13.589844 5.347656-26.632813 14.957031-36.242188s22.652344-14.992187 36.242188-14.957031h10.242187c4.710938 0 8.53125 3.820312 8.53125 8.53125 0 4.714844-3.820312 8.535156-8.53125 8.535156h-10.242187c-9.0625-.035156-17.765625 3.550782-24.175781 9.957032-6.40625 6.410156-9.992188 15.113281-9.957032 24.175781h68.265625c4.714844 0 8.535157 3.820312 8.535157 8.535156 0 4.710937-3.820313 8.53125-8.535157 8.53125zm0 0"/><path d="m93.867188 324.652344c-3.453126 0-6.5625-2.082032-7.882813-5.269532s-.589844-6.855468 1.847656-9.296874c24.933594-23.003907 57.449219-36.042969 91.367188-36.632813 18.070312.042969 35.90625-4.101563 52.105469-12.109375 18.3125-8.953125 38.445312-13.570312 58.828124-13.492188 53.789063 0 122.199219 59.316407 125.089844 61.84375 3.546875 3.101563 3.90625 8.492188.804688 12.042969-3.101563 3.546875-8.496094 3.910157-12.042969.804688-.660156-.574219-66.476563-57.625-113.851563-57.625-18.070312-.042969-35.90625 4.101562-52.105468 12.109375-18.3125 8.953125-38.441406 13.566406-58.828125 13.492187-29.375.664063-57.53125 11.894531-79.300781 31.632813-1.597657 1.601562-3.769532 2.503906-6.03125 2.5zm0 0"/><path d="m356.101562 287.019531c-3.601562.007813-6.820312-2.246093-8.042968-5.632812s-.191406-7.175781 2.582031-9.472657c5.640625-4.695312 9.949219-10.792968 12.484375-17.683593l14.925781-39.941407-79.925781-29.867187-14.933594 39.960937c-3.613281 9.59375-3.613281 20.179688 0 29.773438 1.617188 4.402344-.625 9.285156-5.019531 10.929688-4.390625 1.644531-9.285156-.566407-10.960937-4.945313-5.066407-13.460937-5.0625-28.308594.011718-41.765625l17.910156-47.917969c.789063-2.121093 2.386719-3.839843 4.449219-4.78125 2.058594-.9375 4.40625-1.019531 6.523438-.222656l95.917969 35.839844c4.410156 1.648437 6.648437 6.5625 5.003906 10.972656l-17.921875 47.957031c-3.570313 9.675782-9.625 18.238282-17.558594 24.828125-1.527344 1.273438-3.457031 1.96875-5.445313 1.96875zm0 0"/><path d="m326.164062 239.84375c-2.796874-.003906-5.414062-1.375-7.011718-3.671875-1.59375-2.296875-1.960938-5.226563-.984375-7.847656l53.71875-143.898438c1.648437-4.417969 6.5625-6.660156 10.980469-5.015625 4.414062 1.648438 6.660156 6.5625 5.011718 10.980469l-53.71875 143.902344c-1.246094 3.339843-4.433594 5.550781-7.996094 5.550781zm0 0"/><path d="m399.847656 101.109375c-5.109375-.003906-10.175781-.929687-14.957031-2.722656l-15.984375-5.96875c-22.054688-8.261719-33.261719-32.816407-25.050781-54.890625l11.9375-31.980469c1.648437-4.410156 6.5625-6.652344 10.976562-5.007813l79.949219 29.847657c2.121094.789062 3.84375 2.386719 4.78125 4.445312.941406 2.058594 1.023438 4.410157.234375 6.527344l-11.9375 31.984375c-6.242187 16.664062-22.152344 27.722656-39.949219 27.765625zm-31.050781-81.597656-8.949219 23.980469c-4.925781 13.246093 1.796875 27.980468 15.027344 32.941406l15.988281 5.964844c6.359375 2.375 13.402344 2.128906 19.578125-.691407 6.175782-2.816406 10.980469-7.972656 13.355469-14.332031l8.953125-23.992188zm0 0"/><path d="m135.167969 299.050781h-7.167969c-4.171875 0-7.730469-3.015625-8.417969-7.132812l-17.066406-102.398438c-.410156-2.476562.285156-5.003906 1.90625-6.917969 1.621094-1.914062 4.003906-3.019531 6.511719-3.015624h119.464844c2.511718 0 4.894531 1.105468 6.515624 3.019531 1.621094 1.914062 2.316407 4.445312 1.902344 6.921875l-14.761718 88.40625c-.777344 4.648437-5.175782 7.785156-9.824219 7.007812-4.648438-.777344-7.785157-5.175781-7.007813-9.824218l13.101563-78.46875h-99.316407l14.222657 85.335937c4.710937.015625 8.519531 3.851563 8.5 8.5625-.015625 4.714844-3.851563 8.519531-8.5625 8.503906zm0 0"/><path d="m238.933594 196.652344h-136.535156c-4.710938 0-8.53125-3.820313-8.53125-8.535156v-34.132813c0-4.710937 3.820312-8.53125 8.53125-8.53125h136.535156c4.710937 0 8.535156 3.820313 8.535156 8.53125v34.132813c0 4.714843-3.824219 8.535156-8.535156 8.535156zm-128-17.066406h119.464844v-17.066407h-119.464844zm0 0"/><path d="m153.601562 171.050781c-4.714843 0-8.535156-3.820312-8.535156-8.53125v-51.199219c0-18.851562 15.28125-34.136718 34.132813-34.136718 18.851562 0 34.132812 15.285156 34.132812 34.136718v42.664063c0 4.714844-3.820312 8.535156-8.53125 8.535156-4.714843 0-8.535156-3.820312-8.535156-8.535156v-42.664063c0-9.425781-7.640625-17.070312-17.066406-17.070312s-17.066407 7.644531-17.066407 17.070312v51.199219c0 4.710938-3.820312 8.53125-8.53125 8.53125zm0 0"/></g></svg>